<mxfile host="app.diagrams.net" agent="Mozilla/5.0 (Macintosh; Intel Mac OS X 10_15_7) AppleWebKit/537.36 (KHTML, like Gecko) Chrome/131.0.0.0 Safari/537.36 Edg/131.0.0.0" version="25.0.3">
  <diagram name="第 1 页" id="gTUCbeF6782t6CUNxERK">
    <mxGraphModel dx="899" dy="641" grid="1" gridSize="10" guides="1" tooltips="1" connect="1" arrows="1" fold="1" page="1" pageScale="1" pageWidth="850" pageHeight="1100" math="0" shadow="0">
      <root>
        <mxCell id="0" />
        <mxCell id="1" parent="0" />
        <mxCell id="aSjDNq2WuQ3m6g-QG2uC-1" value="消费者前来就餐" style="rounded=1;whiteSpace=wrap;html=1;" vertex="1" parent="1">
          <mxGeometry x="340" y="30" width="120" height="40" as="geometry" />
        </mxCell>
        <mxCell id="aSjDNq2WuQ3m6g-QG2uC-10" style="edgeStyle=orthogonalEdgeStyle;rounded=0;orthogonalLoop=1;jettySize=auto;html=1;entryX=0.5;entryY=0;entryDx=0;entryDy=0;exitX=0.997;exitY=0.5;exitDx=0;exitDy=0;exitPerimeter=0;" edge="1" parent="1" source="aSjDNq2WuQ3m6g-QG2uC-2" target="aSjDNq2WuQ3m6g-QG2uC-6">
          <mxGeometry relative="1" as="geometry">
            <mxPoint x="530" y="125" as="targetPoint" />
          </mxGeometry>
        </mxCell>
        <mxCell id="aSjDNq2WuQ3m6g-QG2uC-19" style="edgeStyle=orthogonalEdgeStyle;rounded=0;orthogonalLoop=1;jettySize=auto;html=1;entryX=0.5;entryY=0;entryDx=0;entryDy=0;" edge="1" parent="1" source="aSjDNq2WuQ3m6g-QG2uC-2" target="aSjDNq2WuQ3m6g-QG2uC-12">
          <mxGeometry relative="1" as="geometry" />
        </mxCell>
        <mxCell id="aSjDNq2WuQ3m6g-QG2uC-2" value="就餐请求是否合理" style="html=1;whiteSpace=wrap;aspect=fixed;shape=isoRectangle;" vertex="1" parent="1">
          <mxGeometry x="341.66" y="90" width="116.67" height="70" as="geometry" />
        </mxCell>
        <mxCell id="aSjDNq2WuQ3m6g-QG2uC-3" style="edgeStyle=orthogonalEdgeStyle;rounded=0;orthogonalLoop=1;jettySize=auto;html=1;entryX=0.5;entryY=0.043;entryDx=0;entryDy=0;entryPerimeter=0;" edge="1" parent="1" source="aSjDNq2WuQ3m6g-QG2uC-1" target="aSjDNq2WuQ3m6g-QG2uC-2">
          <mxGeometry relative="1" as="geometry" />
        </mxCell>
        <mxCell id="aSjDNq2WuQ3m6g-QG2uC-26" style="edgeStyle=orthogonalEdgeStyle;rounded=0;orthogonalLoop=1;jettySize=auto;html=1;entryX=0;entryY=0.5;entryDx=0;entryDy=0;" edge="1" parent="1" source="aSjDNq2WuQ3m6g-QG2uC-5" target="aSjDNq2WuQ3m6g-QG2uC-25">
          <mxGeometry relative="1" as="geometry" />
        </mxCell>
        <mxCell id="aSjDNq2WuQ3m6g-QG2uC-27" style="edgeStyle=orthogonalEdgeStyle;rounded=0;orthogonalLoop=1;jettySize=auto;html=1;exitX=0.009;exitY=0.507;exitDx=0;exitDy=0;exitPerimeter=0;" edge="1" parent="1">
          <mxGeometry relative="1" as="geometry">
            <mxPoint x="341.0500300000001" y="417.49" as="sourcePoint" />
            <mxPoint x="340" y="50" as="targetPoint" />
            <Array as="points">
              <mxPoint x="341" y="414" />
              <mxPoint x="80" y="414" />
              <mxPoint x="80" y="49" />
              <mxPoint x="340" y="49" />
            </Array>
          </mxGeometry>
        </mxCell>
        <mxCell id="aSjDNq2WuQ3m6g-QG2uC-5" value="是否继续就餐" style="html=1;whiteSpace=wrap;aspect=fixed;shape=isoRectangle;" vertex="1" parent="1">
          <mxGeometry x="340" y="380" width="116.67" height="70" as="geometry" />
        </mxCell>
        <mxCell id="aSjDNq2WuQ3m6g-QG2uC-11" style="edgeStyle=orthogonalEdgeStyle;rounded=0;orthogonalLoop=1;jettySize=auto;html=1;" edge="1" parent="1" source="aSjDNq2WuQ3m6g-QG2uC-6" target="aSjDNq2WuQ3m6g-QG2uC-5">
          <mxGeometry relative="1" as="geometry">
            <Array as="points">
              <mxPoint x="518" y="320" />
              <mxPoint x="398" y="320" />
            </Array>
          </mxGeometry>
        </mxCell>
        <mxCell id="aSjDNq2WuQ3m6g-QG2uC-6" value="返回报错&lt;div&gt;就餐请求不合理&lt;/div&gt;" style="shape=process;whiteSpace=wrap;html=1;backgroundOutline=1;" vertex="1" parent="1">
          <mxGeometry x="458.33" y="160" width="120" height="50" as="geometry" />
        </mxCell>
        <mxCell id="aSjDNq2WuQ3m6g-QG2uC-12" value="查询钱包金额" style="shape=process;whiteSpace=wrap;html=1;backgroundOutline=1;" vertex="1" parent="1">
          <mxGeometry x="220" y="150" width="120" height="30" as="geometry" />
        </mxCell>
        <mxCell id="aSjDNq2WuQ3m6g-QG2uC-17" style="edgeStyle=orthogonalEdgeStyle;rounded=0;orthogonalLoop=1;jettySize=auto;html=1;entryX=0.5;entryY=0;entryDx=0;entryDy=0;exitX=0.994;exitY=0.493;exitDx=0;exitDy=0;exitPerimeter=0;" edge="1" parent="1" source="aSjDNq2WuQ3m6g-QG2uC-13" target="aSjDNq2WuQ3m6g-QG2uC-14">
          <mxGeometry relative="1" as="geometry">
            <mxPoint x="350" y="220" as="sourcePoint" />
            <Array as="points">
              <mxPoint x="397" y="225" />
            </Array>
          </mxGeometry>
        </mxCell>
        <mxCell id="aSjDNq2WuQ3m6g-QG2uC-22" style="edgeStyle=orthogonalEdgeStyle;rounded=0;orthogonalLoop=1;jettySize=auto;html=1;entryX=0.5;entryY=0;entryDx=0;entryDy=0;" edge="1" parent="1" source="aSjDNq2WuQ3m6g-QG2uC-13" target="aSjDNq2WuQ3m6g-QG2uC-23">
          <mxGeometry relative="1" as="geometry">
            <mxPoint x="200" y="320" as="targetPoint" />
            <Array as="points">
              <mxPoint x="200" y="225" />
            </Array>
          </mxGeometry>
        </mxCell>
        <mxCell id="aSjDNq2WuQ3m6g-QG2uC-13" value="钱包金额是否足够" style="html=1;whiteSpace=wrap;aspect=fixed;shape=isoRectangle;" vertex="1" parent="1">
          <mxGeometry x="220.00000000000006" y="190" width="116.67" height="70" as="geometry" />
        </mxCell>
        <mxCell id="aSjDNq2WuQ3m6g-QG2uC-16" style="edgeStyle=orthogonalEdgeStyle;rounded=0;orthogonalLoop=1;jettySize=auto;html=1;exitX=0.5;exitY=1;exitDx=0;exitDy=0;entryX=0.5;entryY=0;entryDx=0;entryDy=0;" edge="1" parent="1" source="aSjDNq2WuQ3m6g-QG2uC-14" target="aSjDNq2WuQ3m6g-QG2uC-15">
          <mxGeometry relative="1" as="geometry" />
        </mxCell>
        <mxCell id="aSjDNq2WuQ3m6g-QG2uC-14" value="更新钱包金额" style="shape=process;whiteSpace=wrap;html=1;backgroundOutline=1;" vertex="1" parent="1">
          <mxGeometry x="338.67" y="240" width="120" height="30" as="geometry" />
        </mxCell>
        <mxCell id="aSjDNq2WuQ3m6g-QG2uC-15" value="更新消费记录" style="shape=process;whiteSpace=wrap;html=1;backgroundOutline=1;" vertex="1" parent="1">
          <mxGeometry x="338.67" y="280" width="120" height="30" as="geometry" />
        </mxCell>
        <mxCell id="aSjDNq2WuQ3m6g-QG2uC-18" style="edgeStyle=orthogonalEdgeStyle;rounded=0;orthogonalLoop=1;jettySize=auto;html=1;entryX=0.506;entryY=0.036;entryDx=0;entryDy=0;entryPerimeter=0;" edge="1" parent="1" source="aSjDNq2WuQ3m6g-QG2uC-15" target="aSjDNq2WuQ3m6g-QG2uC-5">
          <mxGeometry relative="1" as="geometry" />
        </mxCell>
        <mxCell id="aSjDNq2WuQ3m6g-QG2uC-20" style="edgeStyle=orthogonalEdgeStyle;rounded=0;orthogonalLoop=1;jettySize=auto;html=1;exitX=0.5;exitY=1;exitDx=0;exitDy=0;entryX=0.514;entryY=0.093;entryDx=0;entryDy=0;entryPerimeter=0;" edge="1" parent="1" source="aSjDNq2WuQ3m6g-QG2uC-12" target="aSjDNq2WuQ3m6g-QG2uC-13">
          <mxGeometry relative="1" as="geometry" />
        </mxCell>
        <mxCell id="aSjDNq2WuQ3m6g-QG2uC-24" style="edgeStyle=orthogonalEdgeStyle;rounded=0;orthogonalLoop=1;jettySize=auto;html=1;" edge="1" parent="1" source="aSjDNq2WuQ3m6g-QG2uC-23">
          <mxGeometry relative="1" as="geometry">
            <mxPoint x="400" y="355" as="targetPoint" />
          </mxGeometry>
        </mxCell>
        <mxCell id="aSjDNq2WuQ3m6g-QG2uC-23" value="返回报错&lt;div&gt;余额不足&lt;/div&gt;" style="shape=process;whiteSpace=wrap;html=1;backgroundOutline=1;" vertex="1" parent="1">
          <mxGeometry x="140" y="330" width="120" height="50" as="geometry" />
        </mxCell>
        <mxCell id="aSjDNq2WuQ3m6g-QG2uC-25" value="结束" style="rounded=1;whiteSpace=wrap;html=1;" vertex="1" parent="1">
          <mxGeometry x="520" y="396.25" width="100" height="37.5" as="geometry" />
        </mxCell>
        <mxCell id="aSjDNq2WuQ3m6g-QG2uC-28" value="菜品不存在" style="text;html=1;align=center;verticalAlign=middle;whiteSpace=wrap;rounded=0;" vertex="1" parent="1">
          <mxGeometry x="456.67" y="100" width="63.33" height="30" as="geometry" />
        </mxCell>
        <mxCell id="aSjDNq2WuQ3m6g-QG2uC-29" value="菜品合理" style="text;html=1;align=center;verticalAlign=middle;whiteSpace=wrap;rounded=0;" vertex="1" parent="1">
          <mxGeometry x="290" y="100" width="63.33" height="30" as="geometry" />
        </mxCell>
        <mxCell id="aSjDNq2WuQ3m6g-QG2uC-30" value="金额足够" style="text;html=1;align=center;verticalAlign=middle;whiteSpace=wrap;rounded=0;" vertex="1" parent="1">
          <mxGeometry x="341.66" y="200" width="63.33" height="30" as="geometry" />
        </mxCell>
        <mxCell id="aSjDNq2WuQ3m6g-QG2uC-31" value="余额不足" style="text;html=1;align=center;verticalAlign=middle;whiteSpace=wrap;rounded=0;" vertex="1" parent="1">
          <mxGeometry x="140.00000000000003" y="260" width="63.33" height="30" as="geometry" />
        </mxCell>
        <mxCell id="aSjDNq2WuQ3m6g-QG2uC-32" value="继续就餐" style="text;html=1;align=center;verticalAlign=middle;whiteSpace=wrap;rounded=0;" vertex="1" parent="1">
          <mxGeometry x="240.00000000000003" y="390" width="63.33" height="30" as="geometry" />
        </mxCell>
        <mxCell id="aSjDNq2WuQ3m6g-QG2uC-33" value="就餐结束" style="text;html=1;align=center;verticalAlign=middle;whiteSpace=wrap;rounded=0;" vertex="1" parent="1">
          <mxGeometry x="450" y="390" width="63.33" height="30" as="geometry" />
        </mxCell>
      </root>
    </mxGraphModel>
  </diagram>
</mxfile>
